<svg xmlns="http://www.w3.org/2000/svg" viewBox="0 0 128 128" fill="none">
  <defs>
    <linearGradient id="grad128" x1="0%" y1="0%" x2="100%" y2="100%">
      <stop offset="0%" style="stop-color:#667eea"/>
      <stop offset="100%" style="stop-color:#764ba2"/>
    </linearGradient>
    <filter id="shadow" x="-20%" y="-20%" width="140%" height="140%">
      <feDropShadow dx="0" dy="4" stdDeviation="8" flood-color="#000" flood-opacity="0.25"/>
    </filter>
  </defs>
  
  <!-- Background -->
  <rect width="128" height="128" rx="28" fill="url(#grad128)" filter="url(#shadow)"/>
  
  <!-- Inner circle -->
  <circle cx="64" cy="52" r="32" fill="white" opacity="0.15"/>
  
  <!-- Tracker/Chart icon -->
  <rect x="32" y="36" width="64" height="48" rx="6" fill="white" opacity="0.95"/>
  
  <!-- Chart bars -->
  <rect x="42" y="58" width="10" height="18" rx="2" fill="#667eea"/>
  <rect x="56" y="48" width="10" height="28" rx="2" fill="#764ba2"/>
  <rect x="70" y="52" width="10" height="24" rx="2" fill="#667eea"/>
  <rect x="84" y="44" width="10" height="32" rx="2" fill="#764ba2"/>
  
  <!-- Trend line -->
  <path d="M47 54L61 46L75 50L89 42" stroke="#11998e" stroke-width="3" stroke-linecap="round" stroke-linejoin="round"/>
  <circle cx="47" cy="54" r="3" fill="#11998e"/>
  <circle cx="61" cy="46" r="3" fill="#11998e"/>
  <circle cx="75" cy="50" r="3" fill="#11998e"/>
  <circle cx="89" cy="42" r="3" fill="#11998e"/>
  
  <!-- Amazon smile -->
  <path d="M32 96C32 96 44 104 64 104C84 104 96 96 96 96" stroke="#FF9900" stroke-width="5" stroke-linecap="round"/>
  <path d="M88 92L96 96L92 104" stroke="#FF9900" stroke-width="5" stroke-linecap="round" stroke-linejoin="round"/>
  
  <!-- PRO badge -->
  <rect x="80" y="12" width="36" height="18" rx="9" fill="#38ef7d"/>
  <text x="98" y="25" font-family="Arial, sans-serif" font-size="11" font-weight="bold" fill="white" text-anchor="middle">PRO</text>
</svg>

